<?xml version="1.0" standalone="no"?>
<!DOCTYPE svg PUBLIC "-//W3C//DTD SVG 20010904//EN"
 "http://www.w3.org/TR/2001/REC-SVG-20010904/DTD/svg10.dtd">
<svg version="1.0" xmlns="http://www.w3.org/2000/svg"
 width="300.000000pt" height="300.000000pt" viewBox="0 0 300.000000 300.000000"
 preserveAspectRatio="xMidYMid meet">
<metadata>
Created by potrace 1.14, written by Peter Selinger 2001-2017
</metadata>
<g transform="translate(0.000000,300.000000) scale(0.100000,-0.100000)"
fill="#000000" stroke="none">
<path d="M0 1500 l0 -1500 223 0 223 0 -2 27 c0 16 -2 33 -4 38 -4 12 -4 15
-15 165 -14 192 -8 341 15 348 5 2 5 13 0 27 -9 23 9 92 21 81 2 -2 4 47 4
110 0 90 3 117 15 124 8 5 14 21 15 37 0 17 5 27 13 25 6 -1 12 2 12 8 0 6 9
6 25 0 20 -8 27 -6 35 10 13 25 76 29 66 5 -3 -8 -1 -15 4 -15 6 0 10 7 10 16
0 15 2 15 25 0 22 -14 25 -15 25 -1 0 8 5 15 10 15 6 0 10 -4 10 -9 0 -5 7
-11 14 -14 10 -4 13 -1 9 9 -6 17 13 19 21 2 5 -10 7 -10 12 0 3 6 21 12 40
12 20 0 33 -4 29 -9 -3 -5 0 -13 6 -17 8 -5 9 -3 4 5 -6 10 12 11 86 6 111 -9
337 -6 394 4 24 4 39 12 37 20 -1 7 2 10 8 6 6 -3 8 -10 5 -15 -3 -5 17 -8 45
-7 27 1 51 -2 53 -6 4 -14 87 -21 87 -8 0 6 -5 11 -12 11 -6 0 -9 2 -6 5 10
10 63 -16 87 -43 22 -25 23 -25 17 -4 -7 20 -4 22 28 22 39 0 56 15 26 23 -25
6 -26 26 -2 26 47 -1 367 33 434 45 101 19 165 48 180 81 7 15 17 24 25 21 16
-6 16 -5 3 28 -14 39 -2 31 14 -9 8 -19 21 -35 29 -35 7 0 19 -11 27 -24 7
-14 18 -22 25 -20 10 4 12 -6 11 -38 -2 -24 1 -54 6 -68 6 -16 6 -26 -1 -28
-6 -2 -8 -9 -4 -15 4 -6 8 -26 10 -44 3 -26 0 -33 -14 -33 -11 0 -14 -3 -7 -8
12 -9 13 -52 1 -52 -5 0 -6 -7 -3 -16 3 -8 2 -12 -4 -9 -6 4 -11 -13 -11 -42
-1 -26 -3 -57 -4 -68 -1 -11 -6 -54 -10 -95 -4 -41 -9 -84 -10 -95 -1 -11 -3
-30 -4 -43 0 -13 -5 -20 -11 -17 -5 3 -10 0 -11 -7 0 -7 -2 -23 -3 -35 -1 -12
0 -44 4 -72 4 -29 2 -55 -3 -60 -6 -6 -9 -31 -9 -56 2 -33 -3 -50 -18 -65 -12
-12 -17 -26 -13 -36 4 -11 2 -15 -4 -11 -12 8 -27 -22 -17 -32 4 -3 9 0 11 7
10 27 18 9 15 -33 -2 -26 -8 -42 -14 -39 -5 3 -7 12 -4 20 3 8 1 14 -4 14 -11
0 -13 -11 -4 -34 5 -14 45 -16 340 -16 l334 0 0 26 c0 14 -4 23 -9 20 -10 -6
-13 5 -32 114 -6 36 -26 133 -44 215 -32 141 -42 215 -64 445 -13 141 -14 280
-2 280 6 0 8 12 5 28 -4 19 0 34 10 44 8 9 12 18 9 22 -12 12 -24 6 -32 -16
-6 -16 -11 15 -16 97 -4 66 -13 158 -21 205 -7 47 -14 146 -14 220 0 76 -9
198 -21 280 -10 80 -24 183 -30 230 -16 130 -92 291 -161 343 -53 40 -157 90
-174 83 -8 -3 -13 -2 -10 3 3 5 -1 12 -10 15 -29 11 -37 6 -21 -12 10 -10 17
-23 17 -28 0 -5 -5 -1 -11 9 -5 9 -15 17 -22 17 -8 0 -8 -3 2 -9 10 -6 11 -20
6 -52 -9 -56 -14 -63 -31 -48 -8 7 -14 7 -14 1 0 -5 7 -15 15 -22 8 -7 15 -18
15 -24 0 -6 -4 -5 -9 3 -14 22 -33 2 -29 -30 4 -24 2 -27 -10 -16 -13 10 -14
9 -3 -10 14 -27 28 -29 34 -5 2 9 3 -8 1 -38 -3 -40 -2 -49 5 -35 9 18 10 17
10 -7 1 -19 -4 -28 -14 -28 -8 0 -15 -5 -15 -11 0 -6 7 -9 15 -5 8 3 15 0 15
-7 0 -7 10 3 21 21 28 43 67 62 126 62 159 0 213 -209 65 -249 -45 -13 -52 -8
-12 9 65 27 99 105 70 160 -18 34 -74 60 -129 60 -45 0 -57 -4 -82 -29 -20
-20 -29 -40 -29 -61 0 -38 32 -104 62 -124 12 -9 19 -16 14 -16 -13 0 -66 34
-66 42 0 4 -7 8 -15 8 -8 0 -15 4 -15 9 0 5 -7 11 -15 15 -10 4 -15 -1 -15
-15 0 -13 4 -18 12 -13 8 5 9 2 5 -10 -5 -13 -3 -16 11 -12 10 3 28 -4 43 -17
l27 -22 -21 -65 -21 -65 -6 55 c-4 45 -9 57 -28 65 -12 5 -20 15 -18 21 2 6 0
17 -5 25 -8 12 -10 12 -19 -1 -6 -10 -6 -16 0 -18 6 -2 6 -10 1 -20 -4 -9 -6
-34 -4 -54 4 -27 9 -35 20 -31 13 5 13 3 2 -15 -7 -12 -10 -25 -6 -29 5 -4 12
-1 17 7 8 12 10 10 10 -7 0 -15 -6 -23 -17 -23 -14 0 -15 -2 -4 -9 8 -5 9 -10
2 -12 -17 -6 -18 -128 -1 -139 8 -6 10 -10 4 -10 -12 0 -7 -48 7 -65 4 -6 6
-20 4 -30 -2 -11 -4 -24 -4 -30 -1 -5 -5 -4 -10 3 -6 10 -10 8 -14 -8 -4 -16
-2 -20 9 -16 15 6 17 -4 18 -124 1 -36 -2 -75 -6 -86 -4 -12 -1 -27 5 -33 8
-8 8 -11 0 -11 -6 0 -9 -9 -6 -20 3 -11 2 -27 -1 -36 -6 -16 -8 -15 -22 2 -14
18 -15 18 -5 -3 12 -23 15 -70 5 -60 -4 4 -19 -2 -33 -12 -27 -19 -62 -26
-172 -37 -35 -3 -67 -8 -71 -10 -4 -3 -258 -7 -565 -10 -307 -2 -668 -6 -802
-8 l-244 -4 -73 38 c-40 22 -67 41 -61 43 14 4 16 201 3 232 -5 11 -10 38 -12
60 -2 40 -6 56 -29 110 -7 17 -11 47 -9 67 2 27 -2 40 -14 47 -9 5 -13 13 -8
18 5 4 11 2 13 -4 3 -7 9 -13 15 -13 10 0 4 29 -17 72 -11 22 -10 29 3 41 16
16 9 53 -8 42 -5 -3 -10 1 -10 10 0 10 5 13 11 9 9 -5 9 3 4 27 -12 49 -9 300
5 376 15 88 50 163 99 212 63 63 217 133 456 208 28 9 118 26 200 38 122 19
156 33 58 25 -13 -1 -23 3 -23 9 0 6 7 11 16 11 8 0 13 4 10 8 -8 13 24 53 36
46 6 -4 14 0 19 7 8 12 11 12 19 -1 7 -11 10 -12 10 -2 0 18 21 36 45 40 16 2
17 1 5 -7 -12 -8 -12 -13 -2 -23 6 -6 12 -20 12 -29 0 -10 3 -20 8 -22 4 -3 8
22 9 54 l1 59 -604 0 -604 0 0 -1500z m760 1310 c0 -4 -13 -13 -29 -18 -23 -8
-31 -7 -35 3 -7 19 5 27 21 13 8 -6 13 -7 12 -2 -1 5 -1 12 0 16 1 10 31 -2
31 -12z m50 10 c-8 -5 -22 -10 -30 -10 -13 0 -13 1 0 10 8 5 22 10 30 10 13 0
13 -1 0 -10z m-120 -29 c0 -12 -26 -32 -33 -25 -6 7 14 33 26 34 4 0 7 -4 7
-9z m1803 -668 c-7 -2 -19 -2 -25 0 -7 3 -2 5 12 5 14 0 19 -2 13 -5z m4 -30
c15 -14 18 -25 13 -48 -4 -16 -8 -25 -9 -19 -1 14 -44 26 -64 18 -8 -3 -13
-15 -11 -29 1 -14 -2 -28 -7 -31 -10 -6 -5 98 6 116 10 16 51 12 72 -7z m-154
-33 c2 -14 2 -19 0 -12 -3 7 -9 10 -14 7 -5 -4 -9 6 -9 21 0 33 16 21 23 -16z
m107 -171 c0 -5 -7 -9 -15 -9 -8 0 -19 -9 -25 -21 -18 -33 -22 -16 -5 19 10
20 21 29 30 25 8 -3 15 -9 15 -14z m65 -7 c-7 -8 -35 7 -35 18 0 6 7 6 20 -2
10 -7 17 -14 15 -16z m-15 -28 c0 -3 -5 -15 -11 -26 -9 -18 -9 -20 4 -15 11 4
14 2 10 -9 -10 -28 -32 -16 -27 16 6 34 -14 41 -41 14 -19 -19 -28 -14 -19 10
4 11 18 16 45 16 21 0 39 -3 39 -6z m-43 -38 c-7 -13 -15 -22 -18 -20 -4 2 -5
-6 -2 -18 l5 -23 -21 24 -21 23 32 18 c18 10 34 18 35 19 0 0 -4 -10 -10 -23z
m-72 -416 c3 -5 -1 -10 -9 -10 -9 0 -16 5 -16 10 0 6 4 10 9 10 6 0 13 -4 16
-10z m-12 -50 c3 -11 1 -20 -4 -20 -5 0 -9 9 -9 20 0 11 2 20 4 20 2 0 6 -9 9
-20z m9 -37 c-6 -2 -10 -9 -7 -13 3 -5 1 -11 -5 -15 -5 -3 -10 0 -10 8 0 17
10 27 24 26 6 0 5 -3 -2 -6z m-1142 -131 l276 -2 16 -35 c15 -35 15 -35 -9
-41 -16 -4 -28 -2 -34 7 -8 13 -13 6 -10 -13 0 -5 -23 -8 -52 -8 -28 0 -93 -1
-143 -3 -70 -1 -90 1 -87 10 3 7 10 10 16 6 6 -4 7 -1 2 7 -6 10 -12 8 -26 -8
-19 -25 -88 -32 -90 -9 0 10 -2 10 -6 0 -3 -10 -37 -13 -121 -13 -109 1 -115
2 -87 15 l30 14 -37 -4 c-31 -4 -35 -2 -31 14 3 10 0 22 -6 25 -6 4 -11 1 -11
-6 0 -10 -2 -10 -9 1 -5 8 -19 12 -35 9 -14 -3 -26 -1 -26 4 0 6 -8 7 -17 3
-33 -13 -56 -15 -68 -5 -6 5 -16 5 -25 0 -10 -7 -11 -10 -2 -10 6 0 12 -4 12
-10 0 -5 -7 -7 -15 -4 -18 7 -21 -21 -2 -33 7 -5 -24 -11 -73 -15 -47 -4 -102
-10 -122 -13 -36 -7 -38 -6 -60 39 -31 65 -23 69 122 71 66 1 122 4 125 6 2 3
77 4 167 3 90 0 287 -2 438 -2z m-880 -50 c0 -9 9 -35 21 -56 l20 -39 -20 6
c-43 11 -49 -26 -57 -383 -9 -372 -9 -375 -19 -390 -10 -15 -11 -20 -14 -40 0
-5 -6 -10 -12 -10 -6 0 -9 6 -6 14 6 15 -15 40 -25 31 -12 -12 -38 85 -37 135
1 30 -4 76 -11 101 -8 31 -9 57 -2 80 5 19 8 45 6 59 -1 14 2 41 7 60 19 80
60 311 57 322 -2 6 -14 -31 -26 -83 -12 -52 -25 -112 -31 -134 l-9 -40 -1 45
c0 25 6 72 14 105 8 33 15 74 15 90 0 17 7 41 15 55 13 24 16 24 19 1 0 -5 5
-13 9 -18 5 -4 8 1 6 12 -1 12 12 36 32 57 38 42 49 47 49 20z m-70 -16 c0 -8
-4 -17 -9 -21 -12 -7 -24 12 -16 25 9 15 25 12 25 -4z m510 -17 c0 6 5 11 11
11 5 0 8 -4 4 -9 -3 -5 3 -12 12 -14 12 -3 9 -5 -8 -6 -15 0 -33 7 -40 17 -13
15 -12 16 4 3 11 -9 17 -10 17 -2z m-75 -9 c4 -6 -8 -10 -30 -10 -22 0 -34 4
-30 10 3 6 17 10 30 10 13 0 27 -4 30 -10z m-148 -37 c-20 -2 -52 -2 -70 0
-17 2 0 4 38 4 39 0 53 -2 32 -4z m1128 -43 c3 -5 2 -10 -4 -10 -5 0 -13 5
-16 10 -3 6 -2 10 4 10 5 0 13 -4 16 -10z"/>
<path d="M605 1160 c4 -6 -5 -10 -20 -10 -20 0 -26 -4 -23 -17 2 -10 13 -19
26 -21 17 -3 22 2 22 17 0 12 5 21 11 21 5 0 7 5 4 10 -3 6 -11 10 -16 10 -6
0 -7 -4 -4 -10z"/>
<path d="M1020 1160 c0 -5 5 -10 10 -10 6 0 10 5 10 10 0 6 -4 10 -10 10 -5 0
-10 -4 -10 -10z"/>
<path d="M1090 1140 c0 -22 4 -28 16 -23 8 3 13 12 10 20 -3 8 -6 19 -6 24 0
5 -4 9 -10 9 -5 0 -10 -13 -10 -30z"/>
<path d="M960 1129 c0 -5 5 -7 10 -4 6 3 10 8 10 11 0 2 -4 4 -10 4 -5 0 -10
-5 -10 -11z"/>
<path d="M950 1099 c0 -11 67 -12 74 -1 2 4 -13 9 -35 9 -21 1 -39 -2 -39 -8z"/>
<path d="M230 363 c1 -5 7 -19 15 -33 10 -18 14 -20 15 -8 0 23 -11 48 -21 48
-5 0 -9 -3 -9 -7z"/>
<path d="M1220 2991 c0 -6 5 -13 10 -16 6 -3 10 -2 10 4 0 6 7 8 15 5 8 -4 15
-1 15 5 0 6 -11 11 -25 11 -14 0 -25 -4 -25 -9z"/>
<path d="M1290 2991 c0 -5 6 -11 13 -14 6 -3 -7 -8 -30 -12 -38 -7 -41 -9 -30
-27 12 -18 12 -18 28 1 18 21 31 18 22 -5 -10 -26 5 -14 20 15 13 25 12 29 -4
40 -11 6 -19 7 -19 2z"/>
<path d="M2215 2980 c3 -5 8 -10 11 -10 2 0 4 5 4 10 0 6 -5 10 -11 10 -5 0
-7 -4 -4 -10z"/>
<path d="M1350 2969 c0 -5 5 -7 10 -4 6 3 10 8 10 11 0 2 -4 4 -10 4 -5 0 -10
-5 -10 -11z"/>
<path d="M1153 2923 c-15 -5 -17 -23 -4 -23 5 0 11 7 15 15 3 8 4 15 3 14 -1
0 -8 -3 -14 -6z"/>
<path d="M1184 2858 c-3 -5 1 -8 8 -9 7 0 28 -2 45 -4 18 -2 35 0 38 5 3 4
-16 10 -41 12 -25 2 -48 0 -50 -4z"/>
<path d="M1140 2850 c0 -5 5 -10 10 -10 6 0 10 5 10 10 0 6 -4 10 -10 10 -5 0
-10 -4 -10 -10z"/>
<path d="M1290 2850 c0 -5 10 -10 23 -10 18 0 19 2 7 10 -19 13 -30 13 -30 0z"/>
<path d="M1373 2843 c9 -2 25 -2 35 0 9 3 1 5 -18 5 -19 0 -27 -2 -17 -5z"/>
<path d="M1885 2770 c28 -12 37 -12 30 0 -3 6 -16 10 -28 9 -21 0 -21 -1 -2
-9z"/>
<path d="M1975 2758 c10 -6 59 -19 108 -29 49 -10 97 -25 107 -34 14 -12 19
-13 22 -3 5 14 -64 41 -167 63 -83 18 -97 18 -70 3z"/>
<path d="M2250 2682 c14 -11 27 -16 29 -11 4 13 2 15 -29 24 l-25 8 25 -21z"/>
<path d="M2295 2570 c-3 -5 1 -10 9 -10 9 0 16 5 16 10 0 6 -4 10 -9 10 -6 0
-13 -4 -16 -10z"/>
<path d="M2308 2273 c6 -2 9 -9 6 -15 -7 -11 13 -28 33 -28 6 0 9 9 6 21 -4
16 -8 17 -14 7 -7 -10 -9 -9 -9 5 0 10 -7 17 -17 16 -11 0 -13 -3 -5 -6z"/>
<path d="M1515 2240 c3 -5 8 -10 11 -10 2 0 4 5 4 10 0 6 -5 10 -11 10 -5 0
-7 -4 -4 -10z"/>
<path d="M605 2159 c-4 -6 -5 -12 -2 -15 2 -3 7 2 10 11 7 17 1 20 -8 4z"/>
<path d="M540 2127 c0 -9 -12 -18 -30 -22 -16 -4 -30 -10 -31 -13 -1 -4 -2
-22 -4 -40 -1 -19 -8 -39 -15 -45 -10 -9 -12 -8 -7 6 4 10 3 16 -2 13 -5 -4
-7 -24 -4 -46 3 -23 1 -40 -4 -40 -12 0 -14 -9 -14 -115 0 -27 -1 -54 -1 -60
-1 -5 5 -37 11 -70 35 -170 64 -203 207 -230 92 -18 327 -19 321 -2 -2 6 -14
14 -28 17 -23 6 -23 6 -4 17 16 9 23 7 38 -10 l19 -22 -6 23 c-5 16 -3 22 8
22 8 0 24 11 34 25 12 15 23 21 27 15 3 -5 1 -10 -4 -10 -6 0 -11 -4 -11 -10
0 -5 9 -10 20 -10 12 0 17 -5 14 -13 -4 -10 9 -14 51 -16 30 -1 55 2 55 6 0 5
-20 7 -45 5 -28 -3 -45 0 -45 7 0 10 28 16 58 12 8 -1 23 6 33 15 19 17 21 17
44 -8 l24 -26 -22 -10 c-19 -9 -20 -11 -3 -11 14 -1 16 -4 8 -14 -11 -13 -5
-13 218 -21 19 0 40 -4 47 -9 6 -4 13 -3 15 1 1 5 69 12 150 15 143 6 239 25
255 50 4 6 0 8 -10 4 -12 -5 -17 -1 -17 13 0 11 5 20 10 20 21 0 66 146 47
153 -6 2 -9 37 -7 88 3 93 3 134 -3 164 -8 48 -64 117 -77 95 -5 -8 -9 -4 -14
12 -3 13 -9 19 -13 13 -12 -15 -33 -17 -49 -4 -7 6 -17 8 -22 5 -10 -6 -43 30
-35 38 4 3 1 6 -5 6 -5 0 -19 3 -29 6 -16 6 -15 5 2 -9 19 -15 19 -16 1 -23
-10 -4 -38 -8 -61 -8 -34 -1 -41 -4 -33 -13 10 -13 9 -14 -11 -17 -5 0 -13 -4
-17 -8 -17 -17 -35 -8 -29 15 l6 22 -19 -22 c-11 -12 -23 -19 -27 -15 -3 4 -6
2 -5 -3 5 -22 -1 -35 -12 -32 -7 1 -12 -4 -10 -12 3 -12 1 -12 -14 0 -10 8
-15 9 -11 2 4 -6 3 -15 -3 -18 -6 -4 -8 -15 -5 -26 4 -10 2 -19 -4 -19 -6 0
-8 -7 -5 -15 3 -8 -2 -22 -12 -32 -12 -13 -19 -14 -22 -5 -6 18 -22 4 -23 -21
0 -21 -1 -21 -8 -2 -8 19 -8 19 -19 -2 -7 -12 -25 -24 -41 -28 -16 -3 -36 -13
-43 -22 -12 -15 -11 -15 9 -2 17 10 25 11 34 2 17 -17 1 -37 -17 -22 -11 9
-15 8 -20 -5 -4 -12 -13 -15 -28 -10 -20 6 -20 5 3 -20 l24 -26 -26 0 c-28 0
-35 -18 -16 -37 9 -9 6 -10 -11 -6 -19 5 -22 3 -17 -10 7 -18 6 -19 -33 -21
-14 0 -28 -5 -32 -11 -4 -5 -8 6 -8 26 0 24 -5 39 -16 43 -24 9 -26 8 -22 -16
2 -11 -1 -23 -7 -25 -5 -1 -10 12 -9 30 0 17 -2 37 -5 42 -3 6 -6 15 -6 20 0
6 -10 10 -23 9 -12 0 -22 3 -22 7 0 5 -6 6 -14 3 -8 -3 -17 -1 -21 5 -3 7 0 8
9 5 9 -3 16 -1 16 5 0 6 -4 11 -9 11 -5 0 -8 8 -6 18 2 9 4 20 4 24 1 3 10 4
21 1 32 -8 23 11 -10 24 -22 8 -30 18 -30 35 0 13 -7 33 -15 45 -11 16 -12 22
-2 26 6 2 0 4 -15 4 -22 0 -28 -4 -28 -20 0 -20 -1 -20 -17 -4 -12 11 -14 20
-8 25 6 4 10 14 10 22 -1 8 3 20 7 26 5 7 2 14 -9 18 -10 4 -19 3 -21 -3 -4
-13 -32 -2 -32 13 0 6 -9 12 -20 12 -15 0 -18 -5 -14 -21 5 -20 1 -22 -45 -21
-28 1 -51 4 -51 9 0 4 -9 2 -20 -5 -16 -10 -22 -9 -40 12 l-21 24 21 11 c20
11 19 12 -14 22 -26 8 -41 8 -58 -1 -13 -7 -29 -11 -36 -8 -7 2 -19 -1 -26 -8
-11 -8 -16 -8 -22 1 -4 7 -3 9 4 5 6 -3 14 -1 17 5 4 6 16 14 27 18 18 6 18 8
4 20 -13 11 -16 11 -16 -2z m310 -143 c0 -8 -4 -12 -10 -9 -5 3 -10 10 -10 16
0 5 5 9 10 9 6 0 10 -7 10 -16z m-174 -7 c-10 -7 -27 -24 -38 -38 -11 -13 -16
-17 -12 -9 11 24 46 60 58 60 5 0 2 -6 -8 -13z m935 -20 c-34 -37 -7 -77 52
-77 29 0 62 33 54 55 -4 8 -2 15 3 15 17 0 11 -39 -10 -60 -16 -16 -33 -20
-80 -20 -56 0 -60 2 -60 23 0 27 35 87 52 87 6 0 2 -11 -11 -23z m-830 -7 c14
-11 18 -19 11 -20 -7 0 -12 -8 -10 -18 5 -29 -21 -52 -57 -52 -39 0 -59 21
-51 54 14 55 64 72 107 36z m907 -2 c37 -37 -19 -72 -61 -38 -18 15 -19 20 -8
34 16 19 52 21 69 4z m-834 -24 c10 -25 -11 -89 -36 -110 -17 -14 -19 -15 -9
-2 7 9 9 23 5 29 -4 8 -3 9 4 5 12 -7 17 20 14 72 -1 25 13 30 22 6z m176
-218 c0 -3 -4 -8 -10 -11 -5 -3 -10 -1 -10 4 0 6 5 11 10 11 6 0 10 -2 10 -4z
m235 -6 c3 -5 -1 -10 -9 -10 -9 0 -16 5 -16 10 0 6 4 10 9 10 6 0 13 -4 16
-10z m-345 -84 c0 -3 -4 -8 -10 -11 -5 -3 -10 -1 -10 4 0 6 5 11 10 11 6 0 10
-2 10 -4z m220 -16 c0 -5 -4 -10 -10 -10 -5 0 -10 5 -10 10 0 6 5 10 10 10 6
0 10 -4 10 -10z m41 -32 c-11 -11 -13 -10 -7 0 4 7 2 21 -5 30 -12 15 -11 15
6 0 16 -15 17 -20 6 -30z m-264 4 c-10 -10 -14 -22 -10 -25 3 -4 1 -7 -6 -7
-8 0 -11 7 -7 15 3 8 1 15 -4 15 -6 0 -10 5 -10 11 0 6 9 8 20 4 13 -4 20 -2
20 6 0 7 3 9 7 6 3 -4 -1 -15 -10 -25z m143 13 c0 -2 -6 -5 -13 -8 -8 -3 -14
1 -14 8 0 7 6 11 14 8 7 -3 13 -6 13 -8z m-47 -39 c-3 -4 -9 -2 -14 5 -13 22
-11 31 5 17 8 -7 12 -17 9 -22z m118 17 c13 -16 12 -17 -3 -4 -10 7 -18 15
-18 17 0 8 8 3 21 -13z m-221 -63 c0 -5 -4 -10 -10 -10 -5 0 -10 5 -10 10 0 6
5 10 10 10 6 0 10 -4 10 -10z m-105 -28 c-3 -3 -11 0 -18 7 -9 10 -8 11 6 5
10 -3 15 -9 12 -12z"/>
<path d="M701 2091 c-8 -5 -9 -11 -3 -15 5 -3 15 1 22 9 14 16 3 20 -19 6z"/>
<path d="M257 1843 c7 -52 13 -54 13 -5 0 23 -4 42 -9 42 -5 0 -7 -17 -4 -37z"/>
<path d="M1030 1813 c0 -4 5 -15 10 -23 8 -13 10 -13 10 2 0 9 -4 20 -10 23
-5 3 -10 3 -10 -2z"/>
<path d="M1230 1799 c0 -5 5 -7 10 -4 6 3 10 8 10 11 0 2 -4 4 -10 4 -5 0 -10
-5 -10 -11z"/>
<path d="M1947 1733 c11 -31 15 -35 23 -22 5 7 2 18 -5 26 -19 18 -26 16 -18
-4z"/>
<path d="M260 1695 c0 -8 5 -15 10 -15 6 0 10 7 10 15 0 8 -4 15 -10 15 -5 0
-10 -7 -10 -15z"/>
<path d="M270 1639 c0 -5 5 -7 10 -4 6 3 10 8 10 11 0 2 -4 4 -10 4 -5 0 -10
-5 -10 -11z"/>
<path d="M1970 1636 c0 -8 4 -17 9 -20 5 -4 7 3 4 14 -6 23 -13 26 -13 6z"/>
<path d="M2294 1577 c-3 -10 -3 -29 1 -45 l8 -27 8 35 c8 37 -5 66 -17 37z"/>
<path d="M1010 1500 c0 -5 5 -10 10 -10 6 0 10 5 10 10 0 6 -4 10 -10 10 -5 0
-10 -4 -10 -10z"/>
<path d="M2295 1470 c3 -5 11 -10 16 -10 6 0 7 5 4 10 -3 6 -11 10 -16 10 -6
0 -7 -4 -4 -10z"/>
<path d="M2043 1433 c-29 -4 -33 -8 -33 -34 0 -27 3 -29 39 -29 32 0 40 4 45
23 9 34 7 47 -6 45 -7 0 -28 -3 -45 -5z"/>
<path d="M2015 1340 c-4 -6 10 -10 34 -10 23 0 41 5 41 10 0 6 -15 10 -34 10
-19 0 -38 -4 -41 -10z"/>
<path d="M2870 1160 c0 -5 7 -10 16 -10 8 0 12 5 9 10 -3 6 -10 10 -16 10 -5
0 -9 -4 -9 -10z"/>
<path d="M1745 990 c-10 -11 -24 -20 -32 -20 -8 0 -12 -4 -9 -9 4 -5 0 -11 -6
-14 -7 -2 -10 -8 -6 -11 3 -4 16 2 27 13 27 27 37 26 45 -4 9 -34 2 -43 -29
-40 -14 2 -23 -1 -19 -6 3 -5 11 -9 18 -9 8 0 20 -8 27 -17 12 -15 12 -16 -1
-8 -12 6 -13 5 -2 -6 18 -19 15 -40 -5 -32 -11 4 -14 3 -9 -5 4 -6 2 -21 -4
-33 -9 -15 -9 -24 -1 -32 6 -6 11 -42 11 -80 0 -37 5 -77 10 -88 9 -15 7 -21
-5 -25 -18 -7 -21 -69 -3 -80 8 -5 6 -11 -7 -20 -16 -12 -16 -16 -4 -30 21
-25 24 -254 3 -254 -10 0 -9 -5 6 -20 11 -11 20 -26 19 -32 0 -10 -2 -10 -6 0
-2 6 -9 12 -15 12 -6 0 -8 -7 -5 -14 4 -10 1 -13 -9 -9 -22 8 -17 -5 7 -18 17
-9 20 -8 14 2 -6 9 -3 11 9 6 10 -4 20 -7 22 -7 15 0 0 -59 -18 -75 l-23 -20
28 -3 c16 -2 32 -1 35 3 10 10 2 934 -8 960 -15 38 -35 47 -55 25z m35 -204
c0 -3 -4 -8 -10 -11 -5 -3 -10 -1 -10 4 0 6 5 11 10 11 6 0 10 -2 10 -4z m12
-155 c-3 -30 -8 -49 -14 -45 -5 3 -7 17 -4 29 3 13 2 26 -4 30 -6 4 -5 15 2
31 16 34 24 16 20 -45z m1 -101 c-5 -20 -23 -38 -23 -23 1 22 13 52 20 48 5
-3 6 -14 3 -25z m7 -121 c0 -5 -7 -9 -15 -9 -9 0 -12 6 -9 15 6 15 24 11 24
-6z m-13 -61 c-3 -7 -5 -2 -5 12 0 14 2 19 5 13 2 -7 2 -19 0 -25z"/>
<path d="M510 940 c10 -6 11 -10 3 -10 -7 0 -13 -5 -13 -11 0 -8 5 -8 15 1 16
13 11 30 -8 30 -7 0 -6 -4 3 -10z"/>
<path d="M1015 819 c-38 -4 -99 -19 -134 -33 -36 -14 -70 -26 -76 -26 -20 0
-135 -101 -151 -133 -9 -18 -23 -40 -32 -50 -9 -10 -17 -34 -18 -55 -2 -20 -7
-57 -12 -82 -8 -36 -10 -39 -11 -16 -2 45 -13 23 -16 -31 -2 -34 0 -42 6 -28
6 15 8 9 9 -25 2 -74 8 -154 13 -170 3 -8 8 -38 10 -65 3 -28 11 -63 18 -78
l12 -27 459 0 c360 0 458 3 458 13 0 8 4 7 10 -3 5 -8 10 -11 11 -5 2 16 4 27
14 70 5 22 9 43 10 47 0 12 15 22 15 10 0 -6 7 -9 15 -5 14 5 14 8 -1 31 -15
23 -15 30 -1 96 16 71 18 138 5 129 -5 -2 -8 8 -8 24 0 31 -22 103 -53 177
-32 72 -157 186 -238 217 -69 25 -179 31 -314 18z"/>
<path d="M470 800 c0 -5 5 -10 10 -10 6 0 10 5 10 10 0 6 -4 10 -10 10 -5 0
-10 -4 -10 -10z"/>
<path d="M495 730 c3 -5 8 -10 11 -10 2 0 4 5 4 10 0 6 -5 10 -11 10 -5 0 -7
-4 -4 -10z"/>
<path d="M679 713 c-13 -16 -12 -17 4 -4 16 13 21 21 13 21 -2 0 -10 -8 -17
-17z"/>
<path d="M1715 720 c3 -5 11 -10 16 -10 6 0 7 5 4 10 -3 6 -11 10 -16 10 -6 0
-7 -4 -4 -10z"/>
<path d="M1730 591 c0 -6 5 -13 10 -16 6 -3 10 1 10 9 0 9 -4 16 -10 16 -5 0
-10 -4 -10 -9z"/>
<path d="M2329 277 c4 -23 12 -42 21 -45 13 -5 13 -3 1 11 -7 9 -11 28 -9 41
3 14 0 27 -7 29 -8 4 -9 -7 -6 -36z"/>
<path d="M2970 208 c0 -32 17 -46 26 -23 4 9 0 24 -10 33 -15 15 -16 14 -16
-10z"/>
<path d="M1636 121 c-14 -16 -15 -23 -6 -41 9 -17 8 -25 -4 -39 -28 -31 -19
-41 34 -41 40 0 48 3 44 15 -4 8 -1 15 5 15 6 0 11 11 11 25 0 14 5 25 12 25
6 0 9 3 5 6 -3 3 -20 -4 -36 -16 -17 -12 -31 -17 -31 -11 0 6 -7 11 -15 11 -8
0 -15 9 -15 19 0 10 7 21 15 25 16 6 21 26 7 26 -5 0 -17 -9 -26 -19z"/>
<path d="M2983 105 c5 -37 17 -42 14 -6 -1 17 -6 31 -10 31 -4 0 -6 -11 -4
-25z"/>
<path d="M1595 60 c3 -5 8 -10 11 -10 2 0 4 5 4 10 0 6 -5 10 -11 10 -5 0 -7
-4 -4 -10z"/>
</g>
</svg>
