<?xml version="1.0" standalone="no"?>
<!DOCTYPE svg PUBLIC "-//W3C//DTD SVG 20010904//EN"
 "http://www.w3.org/TR/2001/REC-SVG-20010904/DTD/svg10.dtd">
<svg version="1.0" xmlns="http://www.w3.org/2000/svg"
 width="300.000000pt" height="300.000000pt" viewBox="0 0 300.000000 300.000000"
 preserveAspectRatio="xMidYMid meet">
<metadata>
Created by potrace 1.14, written by Peter Selinger 2001-2017
</metadata>
<g transform="translate(0.000000,300.000000) scale(0.100000,-0.100000)"
fill="#000000" stroke="none">
<path d="M0 1500 l0 -1500 219 0 219 0 4 24 c3 14 1 29 -4 34 -20 20 -30 425
-13 562 5 41 9 95 8 120 0 32 2 39 8 25 6 -15 8 -9 8 22 1 23 -3 45 -9 48 -17
10 -11 40 11 59 13 11 19 25 16 37 -3 12 0 19 9 19 8 0 14 9 14 19 0 10 8 22
18 26 16 7 15 8 -3 15 -16 7 -17 9 -3 9 9 1 19 -3 23 -8 6 -11 45 -10 45 1 0
13 105 9 119 -5 11 -9 14 -9 18 1 6 15 63 16 63 1 0 -8 4 -8 14 0 11 10 46 10
151 1 75 -6 139 -9 143 -6 3 3 10 1 17 -4 7 -6 60 -4 148 5 75 8 143 12 151 9
8 -3 16 2 19 13 4 17 5 17 6 -1 1 -16 7 -18 36 -13 19 3 35 2 35 -2 0 -10 71
-23 79 -15 3 3 -1 9 -9 14 -11 7 -5 10 23 10 21 0 37 -5 37 -11 0 -8 5 -8 15
1 8 7 21 10 30 7 8 -4 20 0 27 7 18 17 97 28 298 41 186 12 317 51 343 102 17
32 31 121 28 172 -1 28 1 32 12 22 8 -6 12 -21 10 -34 -2 -12 -6 -40 -9 -62
-6 -39 -5 -39 11 -20 16 19 16 19 1 -8 -15 -24 -15 -28 -2 -33 8 -3 21 -2 27
2 9 5 10 2 6 -10 -5 -11 2 -26 21 -44 15 -15 28 -36 29 -47 1 -11 4 -65 7
-120 4 -55 9 -108 12 -118 3 -10 -1 -19 -10 -23 -9 -3 -16 -10 -16 -15 0 -4 7
-6 15 -3 11 5 13 2 9 -10 -3 -9 -14 -16 -23 -17 -10 0 -11 -2 -4 -6 10 -3 10
-10 2 -24 -5 -11 -7 -23 -5 -28 3 -5 -1 -26 -10 -46 -8 -20 -10 -34 -5 -30 7
4 8 -1 2 -17 -4 -13 -9 -43 -11 -68 -3 -57 -6 -92 -9 -105 -2 -5 -2 -22 -1
-37 1 -16 -2 -28 -7 -28 -5 0 -9 -8 -10 -17 -2 -31 -12 -108 -14 -110 -1 -2
-2 -6 -3 -10 -1 -5 -5 -14 -9 -20 -5 -7 -4 -13 0 -13 5 0 7 -17 5 -38 -2 -20
-3 -54 -3 -74 1 -20 -4 -40 -10 -44 -8 -4 -7 -9 2 -15 10 -6 11 -9 2 -9 -7 0
-13 -6 -13 -14 0 -8 -7 -22 -16 -30 -14 -15 15 -16 320 -16 l336 0 0 78 c0 58
-3 73 -11 62 -9 -12 -9 -11 -3 5 13 35 17 118 5 111 -7 -5 -11 1 -11 14 0 11
-7 37 -16 58 -16 36 -17 36 -24 12 l-6 -25 -8 22 c-4 13 -4 33 -1 44 4 13 3
19 -2 16 -11 -7 -31 73 -37 146 -2 29 -1 41 1 27 3 -14 9 -30 14 -36 5 -6 6
-19 3 -29 -6 -15 -4 -16 15 -6 12 7 26 9 31 6 6 -3 10 -1 10 4 0 6 -5 11 -11
11 -6 0 -9 9 -6 19 3 12 -3 27 -13 36 -18 16 -35 61 -31 79 1 5 -5 6 -14 3
-22 -9 -19 6 5 23 11 8 20 21 20 30 0 13 1 13 10 0 5 -8 5 -19 1 -23 -5 -5 -6
-17 -4 -28 4 -15 14 -18 44 -17 26 1 39 6 39 15 0 11 -5 11 -20 3 -16 -9 -18
-8 -14 5 4 10 0 15 -10 15 -12 0 -15 8 -13 35 1 26 7 35 20 35 10 0 16 -4 13
-9 -3 -5 1 -11 9 -15 11 -4 15 2 15 23 0 25 -3 28 -27 23 -16 -3 -32 -11 -38
-17 -16 -20 -45 -26 -45 -10 0 8 6 12 14 9 10 -4 12 2 8 21 -2 14 -10 24 -16
22 -11 -4 -12 -8 -15 -43 0 -8 -5 -13 -9 -10 -15 9 -6 48 16 71 18 19 19 24 7
29 -8 3 -14 2 -13 -2 2 -12 -14 -42 -23 -42 -5 0 -9 18 -9 40 0 31 3 38 15 34
11 -5 13 -2 9 10 -3 9 -10 13 -15 10 -5 -3 -9 4 -9 15 0 11 8 22 18 24 16 4
16 5 0 6 -10 0 -18 6 -18 12 0 6 9 9 19 6 14 -3 18 -1 14 9 -3 8 -1 14 5 14 5
0 7 11 4 25 -2 15 0 25 7 25 7 0 9 -4 6 -10 -3 -5 -1 -10 4 -10 16 0 13 19 -4
36 -10 10 -15 11 -15 3 0 -8 -4 -8 -15 1 -9 7 -12 16 -7 19 5 3 14 15 21 26
12 19 12 19 6 1 -3 -11 0 -23 7 -28 19 -12 35 -9 18 3 -11 8 -12 12 -2 16 21
8 13 31 -15 38 -21 5 -24 8 -12 15 8 6 15 5 17 -1 3 -6 9 -6 18 2 11 9 12 15
2 26 -9 11 -9 16 2 23 11 7 8 11 -12 21 -21 9 -32 8 -56 -3 l-29 -15 -12 136
c-6 74 -16 153 -20 176 -5 22 -9 105 -10 185 -1 123 -25 392 -36 411 -2 3 -7
32 -10 65 -4 32 -11 81 -16 109 -12 62 -80 204 -121 251 -59 67 -241 140 -221
88 3 -8 0 -14 -6 -14 -6 0 -11 -7 -11 -15 0 -8 -4 -15 -9 -15 -5 0 -7 -8 -4
-19 6 -24 -13 -36 -32 -21 -8 7 -15 9 -15 5 0 -4 8 -13 17 -20 14 -11 15 -17
6 -38 -7 -15 -8 -28 -2 -34 5 -5 10 -39 11 -74 l2 -65 37 38 c34 36 40 38 95
38 69 0 114 -23 144 -72 24 -40 26 -95 4 -126 -16 -24 -72 -57 -81 -48 -3 3 6
10 19 16 52 24 75 111 42 158 -23 34 -68 52 -127 52 -45 0 -57 -4 -80 -28 -45
-46 -30 -134 29 -182 28 -22 28 -22 4 -15 -14 4 -34 15 -45 25 -32 27 -46 33
-39 16 3 -8 14 -18 24 -21 9 -3 25 -14 34 -23 15 -17 14 -23 -5 -80 -23 -68
-39 -81 -34 -27 2 19 -1 35 -6 35 -5 0 -10 -6 -11 -12 -4 -38 -8 -77 -9 -108
-1 -19 -4 -29 -6 -22 -9 25 -20 11 -21 -30 -2 -39 -1 -40 13 -22 14 19 14 19
15 -3 0 -12 -4 -23 -10 -25 -6 -2 -7 -16 -1 -38 15 -57 20 -287 9 -394 l-11
-98 -19 23 -19 24 15 -31 c9 -19 11 -35 5 -45 -5 -8 -9 -10 -9 -6 0 5 -12 -1
-28 -11 -15 -11 -50 -23 -77 -27 -28 -4 -60 -8 -72 -10 -110 -17 -297 -22
-947 -24 -225 0 -406 -4 -403 -7 7 -8 80 -9 474 -12 l271 -2 11 -30 c6 -20 17
-30 30 -30 11 0 23 -4 26 -10 4 -6 -6 -7 -25 -4 -16 4 -30 3 -30 -2 0 -10 27
-9 -364 -19 -230 -6 -307 -5 -302 4 4 6 1 11 -9 11 -9 0 -13 4 -10 10 3 5 1
18 -5 27 -11 17 -11 17 -6 1 3 -10 1 -18 -4 -18 -13 0 -13 -27 0 -32 6 -2 -30
-4 -80 -5 -59 -1 -88 2 -84 8 3 6 20 10 38 9 48 -3 58 -1 51 10 -4 6 -10 8
-15 5 -5 -3 -11 -1 -14 4 -3 5 1 11 9 15 8 3 18 -1 22 -8 11 -18 41 -27 49
-14 5 7 2 8 -7 4 -8 -4 -6 -1 4 7 9 8 17 16 17 19 0 3 -38 5 -84 6 -46 0 -93
5 -104 11 -26 14 -35 14 -27 1 4 -6 -5 -10 -19 -10 -28 0 -31 -6 -17 -29 11
-17 41 -7 41 14 0 19 20 19 46 0 18 -14 18 -14 -3 -8 -17 4 -23 1 -23 -10 0
-9 6 -19 13 -24 7 -5 -21 -11 -68 -14 -44 -4 -100 -10 -125 -14 l-45 -7 -19
48 c-19 46 -19 47 0 61 11 8 34 12 57 10 21 -2 40 0 43 4 3 5 -11 9 -31 9 -37
0 -195 75 -173 82 16 6 13 219 -3 229 -7 4 -14 33 -15 66 -6 85 -6 87 -16 99
-4 7 -8 25 -7 40 1 16 1 34 -1 39 -5 20 0 36 10 30 7 -4 9 2 5 18 -4 14 -2 28
4 31 13 9 15 56 2 56 -6 0 -8 -9 -6 -20 5 -28 -1 -25 -18 8 -10 21 -11 33 -3
46 9 13 7 20 -7 31 -12 9 -14 14 -6 17 10 3 10 14 1 49 -14 52 -13 111 1 102
7 -4 7 0 1 13 -10 23 -7 164 6 249 13 83 62 177 113 219 24 19 79 53 122 74
112 55 367 139 445 147 36 4 72 9 80 12 8 3 25 5 37 4 18 -2 22 1 17 16 -4 11
-3 14 3 6 9 -13 113 -14 113 -1 0 4 -5 8 -11 8 -5 0 -7 5 -4 11 5 6 12 4 20
-8 13 -17 15 -17 43 0 17 9 37 17 45 17 9 0 18 9 22 19 3 12 12 18 20 15 9 -4
15 5 20 27 5 20 10 27 15 19 6 -9 12 -9 29 0 18 9 20 14 11 25 -10 12 -121 15
-691 15 l-679 0 0 -1500z m1230 1470 c0 -5 -2 -10 -4 -10 -3 0 -8 5 -11 10 -3
6 -1 10 4 10 6 0 11 -4 11 -10z m-70 -30 c0 -5 -4 -10 -10 -10 -5 0 -10 5 -10
10 0 6 5 10 10 10 6 0 10 -4 10 -10z m78 -21 c3 -19 1 -22 -9 -12 -17 17 -21
45 -6 40 7 -2 14 -14 15 -28z m-48 -34 c0 -8 -2 -15 -4 -15 -2 0 -6 7 -10 15
-3 8 -1 15 4 15 6 0 10 -7 10 -15z m1311 -791 c22 -20 13 -77 -11 -69 -10 3
-28 -6 -47 -23 -23 -23 -28 -34 -22 -50 5 -12 6 -22 2 -22 -3 0 2 -9 12 -20
17 -18 16 -20 -11 -44 -38 -34 -44 -32 -33 7 5 17 10 61 13 97 2 36 9 83 15
106 10 38 13 41 39 36 15 -2 34 -11 43 -18z m-134 -191 c-3 -10 -5 -4 -5 12 0
17 2 24 5 18 2 -7 2 -21 0 -30z m137 -8 c19 -15 19 -15 -1 -15 -11 0 -23 7
-27 15 -7 19 3 19 28 0z m-4 -44 c0 -14 -16 -26 -35 -28 -20 -1 -20 -1 -1 13
17 12 17 14 4 14 -9 0 -24 -7 -33 -16 -18 -18 -30 -13 -22 10 8 21 87 28 87 7z
m-133 -58 c-3 -10 -5 -4 -5 12 0 17 2 24 5 18 2 -7 2 -21 0 -30z m143 5 c0
-18 -4 -28 -8 -22 -12 18 -40 23 -51 10 -6 -7 -8 -16 -4 -19 3 -4 -1 -7 -10
-7 -8 0 -19 9 -22 20 -3 11 -11 20 -16 20 -5 0 -9 4 -9 9 0 5 23 7 50 6 28 -1
53 2 56 6 10 16 14 9 14 -23z m-113 -40 c-3 -7 -5 -2 -5 12 0 14 2 19 5 13 2
-7 2 -19 0 -25z m54 -45 c12 -14 12 -15 0 -9 -8 5 -16 4 -21 -4 -5 -8 -9 -5
-13 9 -6 26 15 28 34 4z m51 -5 c-7 -7 -12 -8 -12 -2 0 6 3 14 7 17 3 4 9 5
12 2 2 -3 -1 -11 -7 -17z m-52 -33 c0 -8 -4 -15 -10 -15 -5 0 -7 7 -4 15 4 8
8 15 10 15 2 0 4 -7 4 -15z m-63 -266 c2 -36 1 -40 -13 -29 -16 14 -15 50 1
62 6 4 10 8 10 8 0 0 1 -19 2 -41z m518 -238 c-9 -16 -25 -3 -18 15 4 10 9 12
15 6 6 -6 7 -15 3 -21z m-2522 -98 c21 -41 22 -39 -10 -38 -25 0 -28 -4 -34
-45 -4 -25 -9 -205 -12 -400 -4 -195 -6 -356 -7 -358 0 -2 -4 0 -10 3 -10 6
-14 -16 -12 -72 1 -18 -3 -33 -7 -33 -12 0 -22 30 -15 41 3 6 0 16 -6 24 -6 8
-9 19 -5 25 4 6 1 9 -6 8 -13 -3 -15 2 -18 38 0 8 -6 12 -11 9 -6 -4 -7 -12
-4 -18 4 -7 4 -9 -1 -5 -4 4 -10 51 -12 105 -3 54 -8 103 -13 108 -16 21 15
303 49 445 19 77 21 90 13 90 -4 0 -16 -39 -25 -87 -29 -142 -37 -159 -31 -63
4 47 7 95 8 107 0 11 4 19 9 16 4 -2 7 9 7 26 0 33 19 81 31 81 5 0 8 10 6 22
-1 15 4 23 16 26 16 3 17 1 7 -17 -18 -34 6 -24 36 16 l28 37 6 -29 c4 -17 14
-44 23 -62z m224 -19 c-7 -8 -118 -6 -125 1 -3 3 25 5 63 5 38 0 65 -3 62 -6z
m790 -20 c-3 -3 -12 -4 -19 -1 -8 3 -5 6 6 6 11 1 17 -2 13 -5z m-1195 -301
c-3 -16 -7 -22 -10 -15 -4 13 4 42 11 42 2 0 2 -12 -1 -27z m-15 -65 c-3 -8
-6 -5 -6 6 -1 11 2 17 5 13 3 -3 4 -12 1 -19z m2690 -50 c-3 -8 -6 -5 -6 6 -1
11 2 17 5 13 3 -3 4 -12 1 -19z m-2680 -190 c-3 -8 -6 -5 -6 6 -1 11 2 17 5
13 3 -3 4 -12 1 -19z m2748 -128 c3 -5 1 -10 -4 -10 -6 0 -11 5 -11 10 0 6 2
10 4 10 3 0 8 -4 11 -10z m-2623 -140 c-6 -41 -12 -38 -12 6 0 19 4 33 8 30 5
-3 7 -19 4 -36z m2058 -140 c0 -5 -5 -10 -11 -10 -5 0 -7 5 -4 10 3 6 8 10 11
10 2 0 4 -4 4 -10z"/>
<path d="M1443 2971 c8 -22 15 -28 26 -22 9 5 24 7 34 5 13 -2 17 2 12 13 -3
9 -1 19 5 23 6 4 -3 7 -20 8 -19 0 -30 -4 -28 -11 2 -7 -2 -13 -7 -14 -6 -1
-9 5 -7 13 2 8 -4 14 -12 14 -12 0 -12 -5 -3 -29z"/>
<path d="M1579 2988 c-1 -7 0 -19 1 -27 1 -9 -4 -12 -15 -7 -11 4 -15 2 -13
-6 3 -7 14 -14 26 -16 16 -2 20 1 16 11 -3 8 0 18 5 22 6 3 9 11 6 16 -4 5 -1
9 4 9 6 0 11 -7 11 -16 0 -8 4 -13 10 -9 5 3 7 12 3 20 -6 18 -53 20 -54 3z"/>
<path d="M1710 2986 c0 -8 4 -17 9 -20 5 -4 7 3 4 14 -6 23 -13 26 -13 6z"/>
<path d="M1800 2977 c0 -23 17 -47 32 -47 15 0 8 30 -12 50 l-20 20 0 -23z"/>
<path d="M2210 2979 c0 -11 5 -17 10 -14 6 3 10 13 10 21 0 8 -4 14 -10 14 -5
0 -10 -9 -10 -21z"/>
<path d="M2247 2982 c3 -14 11 -18 28 -14 30 5 22 32 -10 32 -18 0 -22 -4 -18
-18z"/>
<path d="M1765 2969 c-9 -28 -2 -33 13 -9 6 11 8 21 3 25 -5 3 -13 -4 -16 -16z"/>
<path d="M2471 2978 c0 -9 5 -21 13 -25 8 -4 16 -21 19 -38 4 -27 4 -26 6 8 1
26 -3 37 -13 37 -8 0 -17 8 -19 18 -4 15 -5 15 -6 0z"/>
<path d="M2711 2944 c0 -11 3 -14 6 -6 3 7 2 16 -1 19 -3 4 -6 -2 -5 -13z"/>
<path d="M1350 2938 c0 -11 28 -10 35 1 3 6 -4 9 -15 8 -11 -1 -20 -5 -20 -9z"/>
<path d="M1905 2940 c3 -5 8 -10 11 -10 2 0 4 5 4 10 0 6 -5 10 -11 10 -5 0
-7 -4 -4 -10z"/>
<path d="M2250 2944 c0 -17 17 -36 24 -26 3 5 -1 15 -9 22 -8 7 -15 9 -15 4z"/>
<path d="M2627 2943 c-4 -6 -4 -18 -1 -26 6 -17 44 -30 44 -16 0 5 -4 9 -8 9
-5 0 -13 10 -19 22 -6 13 -12 18 -16 11z"/>
<path d="M2177 2933 c-11 -10 -8 -51 3 -58 8 -5 7 -12 -2 -23 -12 -15 -11 -16
5 -3 11 9 17 10 17 2 0 -6 6 -11 14 -11 9 0 12 7 9 19 -3 13 -10 18 -21 14
-11 -5 -14 -2 -9 10 3 9 2 19 -3 22 -5 3 -7 12 -3 20 5 16 1 20 -10 8z"/>
<path d="M1845 2919 c-4 -6 -5 -13 -2 -16 7 -7 27 6 27 18 0 12 -17 12 -25 -2z"/>
<path d="M2096 2911 c-4 -5 -2 -12 4 -16 6 -4 8 -10 5 -15 -6 -9 20 -21 29
-13 10 10 7 53 -4 53 -5 0 -7 -8 -4 -17 5 -17 4 -17 -9 0 -9 11 -18 14 -21 8z"/>
<path d="M2700 2910 c0 -5 5 -10 10 -10 6 0 10 5 10 10 0 6 -4 10 -10 10 -5 0
-10 -4 -10 -10z"/>
<path d="M1471 2894 c0 -11 3 -14 6 -6 3 7 2 16 -1 19 -3 4 -6 -2 -5 -13z"/>
<path d="M2675 2880 c-3 -5 -1 -10 4 -10 6 0 11 5 11 10 0 6 -2 10 -4 10 -3 0
-8 -4 -11 -10z"/>
<path d="M2700 2881 c0 -6 5 -13 10 -16 6 -3 10 1 10 9 0 9 -4 16 -10 16 -5 0
-10 -4 -10 -9z"/>
<path d="M2490 2860 c0 -5 5 -10 10 -10 6 0 10 5 10 10 0 6 -4 10 -10 10 -5 0
-10 -4 -10 -10z"/>
<path d="M2602 2845 c-17 -37 -14 -45 4 -12 9 16 14 31 11 33 -2 2 -9 -7 -15
-21z"/>
<path d="M1926 2805 c4 -8 8 -15 10 -15 2 0 4 7 4 15 0 8 -4 15 -10 15 -5 0
-7 -7 -4 -15z"/>
<path d="M1870 2776 c0 -2 9 -6 20 -9 11 -3 18 -1 14 4 -5 9 -34 13 -34 5z"/>
<path d="M1976 2760 c6 -6 46 -17 90 -25 43 -9 88 -18 99 -20 11 -3 6 2 -12
10 -25 11 -161 45 -182 45 -3 0 0 -5 5 -10z"/>
<path d="M2190 2700 c0 -5 5 -10 10 -10 6 0 10 5 10 10 0 6 -4 10 -10 10 -5 0
-10 -4 -10 -10z"/>
<path d="M2300 2570 c0 -5 5 -10 10 -10 6 0 10 5 10 10 0 6 -4 10 -10 10 -5 0
-10 -4 -10 -10z"/>
<path d="M2321 2384 c0 -11 3 -14 6 -6 3 7 2 16 -1 19 -3 4 -6 -2 -5 -13z"/>
<path d="M540 2120 c0 -5 5 -10 10 -10 6 0 10 5 10 10 0 6 -4 10 -10 10 -5 0
-10 -4 -10 -10z"/>
<path d="M511 2101 c-8 -6 -9 -11 -3 -15 6 -3 14 -1 17 5 9 14 2 20 -14 10z"/>
<path d="M588 2094 c-7 -7 -51 -15 -91 -17 -21 -1 -26 -5 -21 -19 3 -10 -2
-32 -10 -50 -9 -17 -16 -40 -16 -50 0 -11 -5 -29 -11 -40 -8 -15 -8 -22 1 -28
8 -5 10 -19 6 -41 -10 -50 -10 -65 7 -161 16 -88 42 -158 58 -158 5 0 9 -6 9
-13 0 -11 32 -27 90 -44 13 -4 13 -4 0 6 -12 9 -10 11 13 11 18 0 27 -5 27
-16 0 -14 3 -14 15 -4 9 7 18 10 22 6 3 -3 0 -7 -8 -7 -31 -3 70 -18 122 -18
73 -1 87 14 83 89 -3 46 0 59 20 81 19 23 56 49 68 49 2 0 4 -11 4 -25 2 -27
-14 -33 -34 -13 -9 9 -12 9 -12 0 0 -7 4 -12 8 -12 15 0 6 -42 -11 -52 -10 -5
-15 -13 -13 -17 3 -5 1 -22 -4 -40 -5 -17 -5 -31 0 -31 4 0 11 12 15 28 4 15
10 21 12 14 3 -6 9 -10 14 -6 5 3 9 0 9 -7 0 -9 4 -8 15 1 8 6 14 27 13 44 -2
45 9 61 30 44 15 -11 15 -11 6 2 -15 21 -14 49 2 43 7 -3 16 -14 20 -25 4 -15
12 -19 30 -15 14 2 21 0 17 -6 -3 -6 -8 -26 -10 -45 -3 -31 -2 -34 12 -22 9 8
14 22 12 32 -3 10 -1 21 5 24 5 3 7 17 4 30 -4 16 -2 24 6 24 9 0 8 3 -2 10
-13 9 -13 11 -1 19 12 8 12 12 2 25 -19 22 -34 20 -28 -4 3 -10 -1 -24 -9 -31
-11 -9 -14 -8 -14 5 0 19 -11 21 -28 4 -9 -9 -12 -9 -12 0 0 7 10 17 23 22 12
5 16 9 8 9 -7 1 -11 7 -7 16 3 8 0 15 -7 15 -8 0 -7 4 3 10 13 9 13 11 0 19
-18 12 -32 -6 -21 -28 10 -19 4 -41 -11 -41 -6 0 -8 11 -4 25 5 18 2 25 -8 25
-13 0 -26 20 -26 40 0 5 8 11 18 13 13 4 11 5 -5 6 -22 1 -34 21 -13 21 6 0
10 7 10 16 0 11 6 15 20 11 32 -8 23 10 -11 22 -21 7 -29 15 -26 26 4 8 2 17
-3 20 -6 4 -10 -2 -11 -12 0 -12 -6 -7 -15 14 -9 22 -19 31 -29 27 -19 -8 -36
34 -24 58 14 26 11 31 -8 12 -16 -16 -18 -15 -25 13 -5 18 -16 33 -28 36 -25
7 -25 -1 0 -28 l20 -21 -47 2 c-27 1 -50 3 -53 4 -12 5 -37 5 -67 -1 -19 -4
-33 -3 -33 3 0 5 -7 16 -15 25 -12 12 -19 13 -30 3 -12 -10 -15 -9 -15 9 0 12
6 21 14 21 8 0 18 5 21 10 6 10 -27 14 -37 4z m263 -107 c-1 -12 -15 -9 -19 4
-3 6 1 10 8 8 6 -3 11 -8 11 -12z m-184 -17 c-14 -11 -29 -30 -32 -41 -4 -11
-9 -18 -12 -16 -12 13 38 76 61 77 5 0 -3 -9 -17 -20z m118 -20 c17 -14 21
-35 5 -25 -6 3 -10 -5 -10 -19 0 -48 -82 -65 -101 -22 -16 35 23 87 62 82 16
-2 36 -9 44 -16z m75 -47 c0 -24 -26 -78 -46 -93 -17 -14 -18 -14 -6 2 8 9 10
23 6 29 -4 7 -3 9 3 6 14 -9 25 61 13 84 -16 29 -11 34 10 9 11 -13 20 -29 20
-37z m110 -173 c0 -5 -5 -10 -11 -10 -5 0 -7 5 -4 10 3 6 8 10 11 10 2 0 4 -4
4 -10z m-102 -220 c-1 -16 -5 -30 -10 -30 -5 0 -6 -4 -3 -10 3 -5 -1 -10 -9
-10 -10 0 -16 9 -16 25 0 15 6 25 15 25 9 0 12 6 9 15 -4 8 -1 15 4 15 6 0 10
-13 10 -30z m-71 -7 c-4 -3 -2 -12 4 -19 6 -8 6 -14 0 -18 -5 -4 -13 -2 -16 4
-8 12 1 40 11 40 4 0 4 -3 1 -7z"/>
<path d="M705 2089 c-11 -17 1 -21 15 -4 8 9 8 15 2 15 -6 0 -14 -5 -17 -11z"/>
<path d="M1702 2088 c-5 -5 -32 -11 -60 -11 -35 -2 -48 -6 -45 -14 3 -7 0 -13
-6 -13 -6 0 -11 8 -11 18 0 14 -2 14 -9 3 -5 -8 -7 -21 -3 -29 3 -10 1 -13 -6
-8 -7 4 -12 14 -12 22 0 8 -4 14 -10 14 -5 0 -10 -4 -10 -10 0 -5 -6 -10 -13
-10 -16 0 -49 -54 -39 -66 4 -4 -2 -2 -12 6 -14 10 -17 11 -12 2 4 -7 2 -20
-6 -29 -9 -12 -9 -15 -1 -9 9 5 11 2 7 -8 -3 -9 -10 -16 -14 -16 -5 0 -6 -9
-3 -20 3 -11 0 -20 -6 -20 -6 0 -11 -6 -11 -14 0 -8 -8 -13 -17 -12 -12 1 -18
-6 -18 -21 0 -11 -4 -25 -8 -29 -4 -5 -5 -1 -2 8 10 24 -14 32 -36 12 -25 -23
-24 -33 4 -26 19 5 17 1 -13 -30 -21 -21 -37 -31 -40 -24 -3 6 -18 12 -35 13
l-30 2 27 -20 c18 -13 24 -25 21 -39 -3 -11 -9 -20 -14 -20 -16 0 -48 -33 -42
-43 3 -6 1 -7 -5 -3 -7 4 -12 2 -12 -4 0 -6 -4 -8 -10 -5 -17 11 -32 -5 -19
-21 6 -7 15 -12 19 -9 4 3 10 -9 14 -26 4 -19 13 -33 26 -36 15 -4 18 -9 10
-18 -13 -15 11 -28 35 -19 10 4 15 0 15 -14 0 -11 -6 -22 -12 -25 -32 -11 166
-19 342 -14 149 5 205 10 237 23 24 9 40 21 36 27 -4 6 0 8 10 4 11 -4 14 -2
10 9 -3 7 -9 14 -14 14 -5 0 -9 5 -9 11 0 15 26 39 34 32 3 -4 7 -2 7 3 1 5 3
23 6 39 6 35 6 42 0 116 -2 31 -7 61 -11 67 -4 7 -2 12 5 12 9 0 10 21 6 78
-5 83 -22 132 -44 132 -8 0 -11 -4 -8 -10 8 -13 -5 -13 -25 0 -13 8 -12 10 3
10 19 0 23 15 7 25 -5 3 -10 2 -10 -4 0 -7 -8 -7 -26 -1 -33 13 -37 13 -28 -2
4 -7 -4 -3 -17 8 -13 12 -30 19 -36 17 -7 -3 -13 2 -13 10 0 19 -24 29 -38 15z
m-6 -139 c13 -15 15 -24 8 -36 -13 -22 -60 -25 -79 -6 -29 28 -10 53 46 62 3
1 14 -8 25 -20z m-370 -266 c-10 -10 -19 5 -10 18 6 11 8 11 12 0 2 -7 1 -15
-2 -18z m554 -63 c0 -5 -2 -10 -4 -10 -3 0 -8 5 -11 10 -3 6 -1 10 4 10 6 0
11 -4 11 -10z m-595 -10 c3 -5 1 -10 -4 -10 -6 0 -11 5 -11 10 0 6 2 10 4 10
3 0 8 -4 11 -10z m49 -115 c-22 -17 -34 -19 -34 -6 0 5 8 12 18 14 32 9 36 7
16 -8z m466 -7 c0 -5 -11 -8 -25 -8 -14 0 -25 3 -25 8 0 4 11 7 25 7 14 0 25
-3 25 -7z"/>
<path d="M2345 2090 c3 -5 8 -10 11 -10 2 0 4 5 4 10 0 6 -5 10 -11 10 -5 0
-7 -4 -4 -10z"/>
<path d="M648 2083 c7 -3 16 -2 19 1 4 3 -2 6 -13 5 -11 0 -14 -3 -6 -6z"/>
<path d="M925 1970 c-3 -5 -1 -10 4 -10 6 0 11 5 11 10 0 6 -2 10 -4 10 -3 0
-8 -4 -11 -10z"/>
<path d="M955 1940 c3 -5 8 -10 11 -10 2 0 4 5 4 10 0 6 -5 10 -11 10 -5 0 -7
-4 -4 -10z"/>
<path d="M1955 1720 c3 -5 8 -10 11 -10 2 0 4 5 4 10 0 6 -5 10 -11 10 -5 0
-7 -4 -4 -10z"/>
<path d="M265 1690 c3 -5 8 -10 11 -10 2 0 4 5 4 10 0 6 -5 10 -11 10 -5 0 -7
-4 -4 -10z"/>
<path d="M1131 1631 c-8 -6 -9 -11 -3 -15 6 -3 14 -1 17 5 9 14 2 20 -14 10z"/>
<path d="M2873 1625 c-9 -25 4 -29 17 -6 7 15 7 21 0 21 -6 0 -13 -7 -17 -15z"/>
<path d="M915 1599 c-4 -6 -5 -12 -2 -15 2 -3 7 2 10 11 7 17 1 20 -8 4z"/>
<path d="M1150 1603 c0 -15 19 -37 26 -31 3 4 -1 14 -10 23 -9 9 -16 13 -16 8z"/>
<path d="M1045 1570 c3 -5 8 -10 11 -10 2 0 4 5 4 10 0 6 -5 10 -11 10 -5 0
-7 -4 -4 -10z"/>
<path d="M1015 1560 c3 -5 11 -10 16 -10 6 0 7 5 4 10 -3 6 -11 10 -16 10 -6
0 -7 -4 -4 -10z"/>
<path d="M1110 1530 c0 -5 5 -10 10 -10 6 0 10 5 10 10 0 6 -4 10 -10 10 -5 0
-10 -4 -10 -10z"/>
<path d="M2855 1530 c3 -5 14 -10 23 -10 15 0 15 2 2 10 -20 13 -33 13 -25 0z"/>
<path d="M880 1460 c0 -5 5 -10 10 -10 6 0 10 5 10 10 0 6 -4 10 -10 10 -5 0
-10 -4 -10 -10z"/>
<path d="M1230 1460 c-8 -5 -10 -10 -5 -10 6 0 17 5 25 10 8 5 11 10 5 10 -5
0 -17 -5 -25 -10z"/>
<path d="M2863 1433 c-3 -10 -8 -22 -10 -28 -3 -5 3 -1 11 9 16 20 21 36 11
36 -3 0 -8 -8 -12 -17z"/>
<path d="M2010 1416 c0 -33 13 -46 46 -46 19 0 34 3 34 8 0 4 3 17 6 30 6 20
3 22 -40 22 -33 0 -46 -4 -46 -14z"/>
<path d="M2015 1340 c-4 -6 10 -10 34 -10 23 0 41 5 41 10 0 6 -15 10 -34 10
-19 0 -38 -4 -41 -10z"/>
<path d="M2960 1270 c-6 -11 -8 -20 -6 -20 3 0 10 9 16 20 6 11 8 20 6 20 -3
0 -10 -9 -16 -20z"/>
<path d="M520 1190 c-14 -4 -23 -9 -20 -10 16 -5 97 -5 105 1 6 4 19 9 30 12
11 2 -5 5 -35 5 -30 0 -66 -4 -80 -8z"/>
<path d="M1092 1145 c-1 -14 3 -25 8 -25 6 0 10 11 10 25 0 14 -4 25 -8 25 -4
0 -9 -11 -10 -25z"/>
<path d="M397 1133 c-4 -3 -7 -11 -7 -17 0 -6 5 -5 12 2 6 6 9 14 7 17 -3 3
-9 2 -12 -2z"/>
<path d="M896 1113 c-6 -14 -5 -15 5 -6 7 7 10 15 7 18 -3 3 -9 -2 -12 -12z"/>
<path d="M2975 1070 c4 -6 11 -8 16 -5 14 9 11 15 -7 15 -8 0 -12 -5 -9 -10z"/>
<path d="M1752 998 c-16 -16 -15 -28 2 -28 19 0 23 -14 25 -100 1 -41 5 -78 7
-82 3 -5 -2 -15 -10 -24 -18 -18 -20 -42 -6 -64 8 -12 10 -12 10 -1 0 8 3 12
6 9 13 -14 14 -180 2 -196 -7 -9 -8 -13 -2 -9 7 4 11 -4 10 -23 -1 -22 -5 -29
-15 -25 -10 4 -9 -2 4 -17 11 -13 21 -25 23 -28 2 -3 2 122 0 277 -3 269 -4
283 -23 303 -16 16 -23 18 -33 8z"/>
<path d="M2923 980 c3 -11 1 -20 -4 -20 -5 0 -9 -7 -9 -15 0 -8 5 -15 10 -15
6 0 10 7 10 15 0 8 4 15 9 15 5 0 7 9 4 20 -3 11 -10 20 -15 20 -6 0 -8 -9 -5
-20z"/>
<path d="M2930 909 c0 -5 5 -7 10 -4 6 3 10 8 10 11 0 2 -4 4 -10 4 -5 0 -10
-5 -10 -11z"/>
<path d="M1730 900 c0 -5 5 -10 11 -10 5 0 7 5 4 10 -3 6 -8 10 -11 10 -2 0
-4 -4 -4 -10z"/>
<path d="M2957 856 c-4 -9 -1 -29 5 -44 l12 -27 4 27 c2 15 -1 35 -6 44 -8 15
-10 15 -15 0z"/>
<path d="M1750 823 c0 -13 5 -23 10 -23 13 0 13 11 0 30 -8 12 -10 11 -10 -7z"/>
<path d="M1015 818 c-38 -3 -99 -18 -134 -32 -34 -14 -67 -24 -71 -23 -17 5
-142 -108 -162 -147 -11 -23 -25 -44 -31 -48 -6 -3 -12 -25 -13 -48 -1 -23 -5
-54 -9 -68 -5 -20 -8 -23 -16 -11 -5 7 -9 10 -10 4 -7 -64 -6 -97 2 -84 6 10
9 2 9 -26 -1 -69 27 -279 40 -307 l13 -28 456 0 456 0 15 23 c8 12 15 24 15
27 1 3 7 18 13 33 7 16 10 32 7 37 -3 5 -1 11 5 15 5 3 10 1 10 -5 0 -6 4 -9
9 -5 6 3 6 17 -1 35 -7 22 -6 49 5 103 15 75 17 128 5 120 -5 -2 -8 8 -8 24 0
31 -21 102 -52 174 -21 49 -110 147 -168 185 -91 60 -181 72 -385 52z"/>
<path d="M2991 814 c0 -11 3 -14 6 -6 3 7 2 16 -1 19 -3 4 -6 -2 -5 -13z"/>
<path d="M2915 810 c3 -5 8 -10 11 -10 2 0 4 5 4 10 0 6 -5 10 -11 10 -5 0 -7
-4 -4 -10z"/>
<path d="M2984 594 c-7 -3 -10 -14 -7 -24 3 -11 0 -20 -6 -20 -6 0 -11 -4 -11
-10 0 -5 7 -10 16 -10 8 0 12 -4 9 -10 -3 -5 -1 -10 4 -10 6 0 11 20 11 45 0
25 -1 45 -2 44 -2 0 -8 -3 -14 -5z"/>
<path d="M581 484 c0 -11 3 -14 6 -6 3 7 2 16 -1 19 -3 4 -6 -2 -5 -13z"/>
<path d="M2973 493 c-7 -3 -13 -12 -13 -20 0 -11 3 -13 13 -5 9 8 12 0 13 -33
0 -24 -3 -42 -7 -39 -4 2 -2 -7 4 -21 11 -22 12 -18 15 35 3 64 -5 90 -25 83z"/>
<path d="M2915 441 c-6 -11 9 -23 19 -14 9 9 7 23 -3 23 -6 0 -12 -4 -16 -9z"/>
<path d="M1795 380 c-3 -5 -1 -10 4 -10 6 0 11 5 11 10 0 6 -2 10 -4 10 -3 0
-8 -4 -11 -10z"/>
<path d="M1799 329 c0 -32 -1 -33 -10 -10 -7 18 -13 21 -21 13 -14 -14 -2 -76
18 -97 12 -12 15 -37 12 -125 -3 -99 2 -133 14 -97 6 19 1 338 -6 344 -3 4 -6
-9 -7 -28z"/>
<path d="M2992 310 c0 -19 2 -27 5 -17 2 9 2 25 0 35 -3 9 -5 1 -5 -18z"/>
<path d="M2329 278 c4 -24 12 -43 21 -46 12 -4 13 -2 3 9 -7 7 -13 25 -13 40
0 15 -4 30 -8 33 -5 3 -6 -14 -3 -36z"/>
<path d="M1650 130 c0 -5 5 -10 10 -10 6 0 10 5 10 10 0 6 -4 10 -10 10 -5 0
-10 -4 -10 -10z"/>
<path d="M1741 133 c0 -5 4 -17 9 -28 8 -18 9 -17 9 8 1 15 -3 27 -9 27 -5 0
-10 -3 -9 -7z"/>
<path d="M2327 103 c-4 -3 -7 -11 -7 -17 0 -6 5 -5 12 2 6 6 9 14 7 17 -3 3
-9 2 -12 -2z"/>
<path d="M1633 23 c-41 -8 -24 -23 25 -22 26 1 37 4 24 6 -12 2 -20 9 -17 14
4 5 3 8 -2 8 -4 -1 -18 -4 -30 -6z"/>
</g>
</svg>
